<svg width="720" height="420" viewBox="0 0 720 420" fill="none" xmlns="http://www.w3.org/2000/svg">
  <rect width="720" height="420" fill="#201B2A"/>
  <rect x="24" y="52" width="300" height="92" rx="0" fill="#261F33" fill-opacity="0.92"/>
  <rect x="26" y="54" width="296" height="88" rx="0" fill="#31283F" fill-opacity="0.92"/>
  <rect x="24" y="52" width="300" height="4" fill="#A9D7D0"/>
  <rect x="34" y="74" width="280" height="1" fill="#FFEAF6" fill-opacity="0.35"/>
  <rect x="34" y="60" width="3" height="3" fill="#F8C8E2"/>
  <rect x="40" y="63" width="2" height="2" fill="#EBC7FF"/>
  <rect x="306" y="61" width="3" height="3" fill="#F8C8E2"/>
  <text x="34" y="67" fill="#FDF7FF" font-size="14" font-family="Pretendard, Segoe UI, sans-serif" font-weight="700">작물 수확 현황</text>
  <rect x="253" y="59" width="54" height="10" fill="#6ABF9E" fill-opacity="0.9"/>
  <text x="259" y="66" fill="#F8FFFB" font-size="9" font-family="Pretendard, Segoe UI, sans-serif" font-weight="700">수확 중</text>

  <text x="34" y="90" fill="#D9C3D6" font-size="11" font-family="Pretendard, Segoe UI, sans-serif">작물</text>
  <rect x="100" y="79" width="14" height="14" fill="#7EDC90"/>
  <text x="120" y="90" fill="#FFFDF7" font-size="12" font-family="Pretendard, Segoe UI, sans-serif" font-weight="600">사탕수수</text>

  <text x="34" y="101" fill="#D9C3D6" font-size="11" font-family="Pretendard, Segoe UI, sans-serif">수확량</text>
  <text x="100" y="101" fill="#E7F4FF" font-size="12" font-family="Pretendard, Segoe UI, sans-serif" font-weight="600">213</text>

  <text x="34" y="112" fill="#D9C3D6" font-size="11" font-family="Pretendard, Segoe UI, sans-serif">활성 시간</text>
  <text x="100" y="112" fill="#FFF1B8" font-size="12" font-family="Pretendard, Segoe UI, sans-serif" font-weight="600">03:27</text>

  <text x="34" y="123" fill="#D9C3D6" font-size="11" font-family="Pretendard, Segoe UI, sans-serif">예상 수익</text>
  <text x="100" y="123" fill="#B7FF9C" font-size="12" font-family="Pretendard, Segoe UI, sans-serif" font-weight="700">358.8</text>

  <text x="34" y="134" fill="#D9C3D6" font-size="11" font-family="Pretendard, Segoe UI, sans-serif">시간당 수익</text>
  <text x="100" y="134" fill="#9EDCFF" font-size="12" font-family="Pretendard, Segoe UI, sans-serif" font-weight="700">6,221.13</text>

  <text x="364" y="90" fill="#F5EEFF" font-size="18" font-family="Pretendard, Segoe UI, sans-serif" font-weight="700">귀여운 HUD 방향</text>
  <text x="364" y="118" fill="#E4DCEC" font-size="13" font-family="Pretendard, Segoe UI, sans-serif">• 파스텔 민트/핑크 톤으로 부드러운 분위기</text>
  <text x="364" y="142" fill="#E4DCEC" font-size="13" font-family="Pretendard, Segoe UI, sans-serif">• 작은 장식 점으로 아기자기한 느낌 추가</text>
  <text x="364" y="166" fill="#E4DCEC" font-size="13" font-family="Pretendard, Segoe UI, sans-serif">• 상태 배지를 말랑한 색감으로 변경</text>
  <text x="364" y="190" fill="#E4DCEC" font-size="13" font-family="Pretendard, Segoe UI, sans-serif">• 정보 구조는 유지해서 읽기 쉬움 보존</text>
</svg>
